# xmcd
#
# Track frame offsets:
#	150
#	11979
#	28925
#	42335
#	68090
#	86808
#	102403
#	131908
#	151879
#
# Disc length: 2328 seconds
#
# Revision: 1
# Processed by: cddbd v1.5.1PL2 Copyright (c) Steve Scherf et al.
# Submitted via: EasyCDDAExtractor 9.0.0.1
#
DISCID=7b091609
DTITLE=Eric Clapton - Another Ticket
DYEAR=1981
DGENRE=Blues
TTITLE0=Something Special
TTITLE1=Black Rose
TTITLE2=Blow Wind Blow
TTITLE3=Another Ticket
TTITLE4=I Can't Stand It
TTITLE5=Hold Me Lord
TTITLE6=Floating Bridge
TTITLE7=Catch Me If You Can
TTITLE8=Rita Mae
EXTD=Polydor-1981
EXTT0=
EXTT1=
EXTT2=
EXTT3=
EXTT4=
EXTT5=
EXTT6=
EXTT7=
EXTT8=
PLAYORDER=
